HIERARCHY
ROOT Hips
{
	OFFSET 16.865883 106.896896 -0.624724
	CHANNELS 6 Xposition Yposition Zposition Xrotation Yrotation Zrotation
	JOINT Chest
	{
		OFFSET 1.972486 13.438766 1.289598
		CHANNELS 3 Xrotation Yrotation Zrotation
		JOINT Chest2
		{
			OFFSET 1.151285 21.070877 3.709337
			CHANNELS 3 Xrotation Yrotation Zrotation
			JOINT Chest3
			{
				OFFSET -1.419546 14.858932 0.129897
				CHANNELS 3 Xrotation Yrotation Zrotation
				JOINT Neck
				{
					OFFSET -0.287680 17.215637 1.468031
					CHANNELS 3 Xrotation Yrotation Zrotation
					JOINT Head
					{
						OFFSET -2.061100 9.943985 2.587814
						CHANNELS 3 Xrotation Yrotation Zrotation
						End Site
						{
							OFFSET -2.037405 9.965714 2.522160
						}
					}
				}
				JOINT LeftCollar
				{
					OFFSET 3.679491 12.993744 4.407752
					CHANNELS 3 Xrotation Yrotation Zrotation
					JOINT LeftUpArm
					{
						OFFSET 14.924099 9.258209 -0.236973
						CHANNELS 3 Xrotation Yrotation Zrotation
						JOINT LeftLowArm
						{
							OFFSET -4.843655 17.443817 28.495262
							CHANNELS 3 Xrotation Yrotation Zrotation
							JOINT LeftHand
							{
								OFFSET -23.699419 3.004913 18.172932
								CHANNELS 3 Xrotation Yrotation Zrotation
								End Site
								{
									OFFSET -5.179646 0.656754 3.971798
								}
							}
						}
					}
				}
				JOINT RightCollar
				{
					OFFSET -4.694251 12.926071 3.562217
					CHANNELS 3 Xrotation Yrotation Zrotation
					JOINT RightUpArm
					{
						OFFSET -15.237909 -0.975601 -8.680467
						CHANNELS 3 Xrotation Yrotation Zrotation
						JOINT RightLowArm
						{
							OFFSET -31.965469 -10.838379 -0.687366
							CHANNELS 3 Xrotation Yrotation Zrotation
							JOINT RightHand
							{
								OFFSET -28.157581 -8.480225 6.015855
								CHANNELS 3 Xrotation Yrotation Zrotation
								End Site
								{
									OFFSET -6.154133 -1.853394 1.314830
								}
							}
						}
					}
				}
			}
		}
	}
	JOINT LeftUpLeg
	{
		OFFSET 9.908503 -1.477554 0.239866
		CHANNELS 3 Xrotation Yrotation Zrotation
		JOINT LeftLowLeg
		{
			OFFSET 10.645983 -46.063030 2.974968
			CHANNELS 3 Xrotation Yrotation Zrotation
			JOINT LeftFoot
			{
				OFFSET 1.822014 -42.271698 -14.503531
				CHANNELS 3 Xrotation Yrotation Zrotation
				JOINT LeftToe
				{
					OFFSET 10.828758 -16.203663 13.406671
					CHANNELS 3 Xrotation Yrotation Zrotation
					End Site
					{
						OFFSET 12.150185 -1.844392 20.212128
					}
				}
			}
		}
	}
	JOINT RightUpLeg
	{
		OFFSET -9.908535 1.477364 -0.239885
		CHANNELS 3 Xrotation Yrotation Zrotation
		JOINT RightLowLeg
		{
			OFFSET -15.039567 -44.709354 4.347027
			CHANNELS 3 Xrotation Yrotation Zrotation
			JOINT RightFoot
			{
				OFFSET -10.970424 -40.488297 -15.521803
				CHANNELS 3 Xrotation Yrotation Zrotation
				JOINT RightToe
				{
					OFFSET -4.589083 -18.565620 13.921734
					CHANNELS 3 Xrotation Yrotation Zrotation
					End Site
					{
						OFFSET -3.748283 -5.310344 22.744379
					}
				}
			}
		}
	}
}
MOTION
Frames: 17
Frame Time: 0.033333
3.363336 106.187019 -1.111724 0.026078 -1.519627 8.750574 -3.488144 0.511084 -2.432509 0.498809 8.081418 -8.760366 3.325768 1.095945 2.202578 -6.694052 9.167658 -4.277118 0.000001 0.000000 -0.000000 19.280625 16.285124 -56.399751 69.911248 23.224634 -88.103286 -9.102281 33.109240 0.317308 -0.000001 -0.000004 -0.000002 5.031975 -4.456849 23.194656 3.901309 12.281529 39.784223 7.885544 17.384612 2.300374 -0.000000 0.000002 -0.000003 5.302833 -1.241453 -16.335349 -7.848846 1.795766 8.855165 -4.480619 -26.021218 -9.703941 -0.000000 0.000003 -0.000000 7.839665 -0.489602 9.331647 -9.470550 -1.383675 -3.683943 -5.484784 -1.505809 -4.178362 -0.000000 -0.000001 -0.000001 
3.354033 106.183754 -1.118365 0.181656 -1.521601 8.658156 -3.656401 0.535809 -2.404910 0.791636 8.017912 -8.716584 3.184455 1.309399 2.201373 -6.638973 9.038250 -4.170528 0.000001 0.000000 -0.000001 19.265245 15.962618 -56.253295 69.918516 23.410004 -88.315295 -8.734905 32.872375 0.527711 0.000002 -0.000006 0.000003 5.011736 -4.326352 23.280206 3.982183 12.050829 39.737009 7.742033 17.618297 2.093050 0.000001 0.000000 0.000001 4.890880 -1.208398 -16.190948 -7.091877 1.851776 8.846191 -4.594794 -25.891482 -9.582019 -0.000000 0.000001 -0.000000 7.798036 -0.464942 9.494664 -9.327727 -1.390926 -3.659994 -5.735584 -1.696649 -4.307221 -0.000000 -0.000001 -0.000000 
3.339935 106.180786 -1.122035 -0.025467 -1.424232 8.649327 -3.144928 0.458191 -2.392420 -0.096127 8.086233 -8.688107 3.829178 1.161013 2.226526 -6.745320 9.089198 -4.234461 0.000002 0.000002 -0.000001 19.323459 16.098244 -56.478069 69.729415 23.453837 -88.030675 -8.586669 32.756218 0.547832 0.000001 -0.000008 0.000003 4.992414 -4.239640 23.356769 4.048420 11.959507 39.628546 7.640464 17.635337 2.076720 0.000002 0.000002 -0.000001 4.873741 -1.215781 -16.122474 -6.908519 1.796076 8.781896 -4.604413 -25.817183 -9.561490 -0.000000 -0.000001 -0.000000 7.785456 -0.449870 9.535613 -8.873849 -1.429569 -3.592380 -6.143454 -1.606033 -4.311219 -0.000000 -0.000001 -0.000000 
3.314908 106.175011 -1.126083 0.024848 -1.604595 8.619280 -3.157853 0.473421 -2.359816 -1.119401 8.163356 -8.646693 4.832202 1.001617 2.262470 -6.877912 9.170237 -4.318033 0.000001 -0.000000 0.000000 19.159201 16.532201 -56.631339 69.463413 23.381112 -87.662883 -8.377884 33.120520 0.340577 -0.000003 -0.000005 -0.000003 4.894697 -4.005997 23.347878 3.916866 11.948891 39.543452 7.630194 17.256256 2.444653 0.000001 0.000001 0.000002 4.746471 -1.249983 -16.124705 -6.233714 1.903208 8.866607 -4.870266 -25.841999 -9.426044 -0.000000 0.000003 -0.000000 7.845937 -0.431029 9.549205 -8.831511 -1.502684 -3.490455 -6.215180 -1.526915 -4.265364 -0.000002 -0.000002 0.000000 
3.281015 106.161278 -1.117227 0.043135 -1.488212 8.666094 -3.161942 0.494839 -2.346199 -0.334934 8.043099 -8.592493 4.060978 0.688391 2.037932 -6.294819 9.205301 -4.340907 0.000001 0.000002 -0.000001 18.905834 16.631746 -56.472892 69.459875 23.398988 -88.020559 -8.068772 33.650880 -0.055987 -0.000003 -0.000006 -0.000001 4.757651 -4.071259 23.308854 3.914219 11.546067 39.609155 7.431466 17.506279 2.339819 -0.000001 -0.000001 0.000001 4.799987 -1.259088 -16.159956 -5.806003 1.960485 9.008062 -5.419616 -26.315307 -9.554888 -0.000000 0.000001 -0.000000 8.019384 -0.464536 9.507982 -8.980408 -1.504292 -3.378776 -6.181804 -1.674461 -4.305414 -0.000000 -0.000002 0.000001 
3.242637 106.149261 -1.113436 0.175258 -1.636078 8.618958 -3.162786 0.507347 -2.319005 -0.681369 8.060544 -8.561630 4.423108 0.889128 2.118420 -6.710815 9.155268 -4.366368 0.000002 -0.000000 0.000000 18.826913 16.462404 -56.238879 69.660601 23.402545 -88.366952 -8.176238 33.663212 0.028392 -0.000003 -0.000007 0.000002 4.715710 -4.475284 23.301733 3.984046 11.446321 39.625185 7.536971 17.717779 2.039176 0.000000 0.000003 0.000002 4.788260 -1.250466 -16.040049 -5.864937 1.948881 8.994806 -5.564530 -26.264977 -9.462896 -0.000000 0.000003 0.000001 8.042671 -0.444713 9.614279 -9.091217 -1.423567 -3.414631 -6.138995 -1.809397 -4.345763 -0.000001 -0.000001 0.000001 
3.193203 106.133537 -1.103862 0.105760 -2.045916 8.626571 -3.135548 0.523077 -2.446540 -0.681823 8.080011 -8.579310 4.542060 0.720118 2.182940 -6.789420 9.269392 -4.447546 0.000001 -0.000000 -0.000000 18.767294 17.069175 -56.382781 69.653504 23.138644 -88.078247 -8.381183 33.518610 0.203545 -0.000001 -0.000006 0.000001 4.784007 -3.914101 23.145856 4.220735 11.076604 39.793836 7.558600 17.789429 1.747496 0.000003 0.000001 -0.000001 4.295386 -1.218772 -15.947701 -4.504337 2.141374 8.831643 -6.321990 -26.189100 -9.082472 -0.000000 -0.000002 -0.000001 7.768954 -0.391401 9.662958 -8.125274 -1.681210 -3.436311 -6.529984 -1.270587 -4.161925 0.000000 -0.000001 0.000002 
3.132159 106.114456 -1.091035 -0.182063 -2.016182 8.433991 -3.016638 0.492001 -2.335640 -0.091365 7.915272 -8.442834 4.032740 0.729459 1.952960 -6.650309 9.095995 -4.229272 0.000002 -0.000003 -0.000001 18.442476 16.928832 -56.037751 69.683728 23.007152 -88.828782 -7.547849 33.324401 -0.667470 -0.000003 -0.000007 0.000000 4.492964 -4.237365 22.960992 4.141961 10.408183 40.019444 6.803714 17.319750 2.253877 -0.000002 0.000001 -0.000001 3.937673 -1.245600 -15.661856 -3.255522 2.207363 8.819206 -5.868806 -25.797375 -8.941212 0.000000 0.000003 -0.000000 8.462032 -0.517893 9.932816 -8.483758 -1.636940 -3.258996 -6.296818 -1.622828 -4.237252 0.000000 -0.000000 0.000000 
3.067540 106.098099 -1.072039 -0.699100 -2.571600 8.342877 -2.327498 0.402207 -2.392876 -0.803554 7.885091 -8.372543 4.515829 0.927517 2.031476 -6.380348 9.048244 -4.406803 0.000002 0.000000 -0.000001 18.362042 16.667878 -56.100172 69.571255 23.008918 -89.017152 -7.773010 33.371314 -1.075891 -0.000003 -0.000004 0.000000 4.323041 -4.172186 23.099604 4.166426 9.999941 39.916189 6.779570 17.021465 2.444291 -0.000001 0.000002 -0.000004 3.685486 -1.187051 -15.483035 -2.017891 2.409529 8.641698 -5.443868 -25.347691 -8.791448 -0.000000 0.000001 -0.000000 8.668530 -0.595584 9.994199 -7.887835 -1.849864 -3.259247 -6.634631 -0.718143 -3.885961 -0.000001 0.000002 0.000001 
2.991701 106.076324 -1.055298 -0.791604 -2.660719 8.213418 -2.937119 0.470444 -2.217855 2.049764 7.661625 -8.389280 2.527579 0.393118 1.687490 -6.506845 9.075442 -4.224889 0.000002 0.000002 -0.000002 18.349428 16.422597 -55.942224 69.431974 22.572185 -88.499362 -7.988199 33.093796 -1.237625 -0.000000 -0.000007 -0.000002 4.341417 -4.021692 22.934182 4.006676 10.174169 40.011921 6.695366 17.054989 2.223741 0.000000 0.000002 -0.000003 3.203968 -1.206567 -15.316904 -0.994048 2.378999 8.672536 -5.438151 -24.897797 -8.478728 -0.000000 0.000001 -0.000001 8.673309 -0.585156 10.169639 -7.752620 -1.820305 -3.171446 -6.471262 -1.162527 -3.966413 -0.000002 0.000002 -0.000000 
2.910306 106.053368 -1.039966 -1.224819 -2.808597 8.085422 -2.443091 0.357900 -2.045948 1.403719 7.612482 -8.238173 2.940941 0.411220 1.503776 -5.971462 8.905263 -4.076478 0.000001 -0.000002 -0.000001 18.327153 15.705205 -55.694356 69.442841 22.346644 -88.582561 -8.590699 33.319340 -1.622146 0.000002 -0.000006 0.000001 4.300592 -3.892319 22.907894 4.216911 9.523249 40.165692 6.557429 17.445145 1.704474 0.000002 0.000002 -0.000003 2.598147 -1.159842 -15.242575 0.894211 2.657595 8.875386 -5.585181 -24.905919 -8.346079 -0.000000 -0.000001 -0.000000 8.620338 -0.586036 10.279944 -7.217724 -2.114289 -3.025432 -6.739975 -1.210252 -4.070875 -0.000000 0.000001 0.000001 
2.823092 106.025291 -1.028141 -1.411965 -3.216292 7.897982 -2.668273 0.371187 -2.002656 2.856351 7.465563 -8.214452 1.889493 0.393943 1.426311 -6.226768 8.768739 -4.110996 0.000002 0.000002 -0.000001 18.428462 15.972997 -55.728780 69.285603 21.747309 -87.470387 -9.501146 33.625704 -1.536245 -0.000002 -0.000004 -0.000000 4.463124 -3.814645 23.007240 3.861238 10.415881 40.099153 7.146479 16.878294 1.004301 0.000001 0.000002 -0.000003 1.934466 -1.059660 -14.976814 2.467648 2.881156 8.802907 -5.625353 -24.599850 -8.116955 -0.000000 0.000003 -0.000000 8.513772 -0.555642 10.491887 -6.996332 -2.281531 -3.012671 -6.816658 -0.894754 -4.014108 -0.000000 -0.000001 0.000001 
2.728230 105.989182 -1.009703 -1.621570 -3.314589 7.874400 -2.184023 0.337487 -2.123535 2.693373 7.341038 -8.057090 1.942483 0.172836 1.325973 -6.212444 8.560158 -4.137423 -0.000000 0.000002 -0.000001 18.150741 15.367736 -55.340091 69.054046 21.144953 -87.254745 -9.629924 33.827567 -2.231279 0.000003 -0.000007 0.000000 4.192193 -3.848871 23.018299 3.749176 9.827461 40.323080 7.068413 16.404094 0.494479 0.000001 0.000001 -0.000003 1.164420 -1.025777 -14.891836 4.210106 3.095505 8.776962 -6.051767 -24.645373 -7.932868 0.000000 0.000003 -0.000000 7.873472 -0.426713 10.639770 -5.577291 -2.610742 -3.068760 -7.198892 -0.730464 -4.038296 -0.000001 -0.000001 0.000001 
2.632406 105.937500 -0.992701 -2.007719 -3.751427 7.703554 -1.666526 0.271124 -2.086468 2.158408 7.217534 -7.872059 2.355388 -0.030316 1.242363 -5.906888 8.603182 -4.298028 0.000002 0.000000 -0.000001 17.813994 15.544471 -55.135316 69.058048 20.502814 -87.256527 -10.032083 35.044823 -3.211895 0.000002 -0.000007 -0.000003 4.093737 -3.360155 22.735388 3.500258 9.474287 40.808413 7.281830 15.640923 -0.173045 0.000000 0.000001 -0.000001 0.372601 -0.950941 -14.671156 6.390650 3.294557 8.711638 -5.954272 -24.256145 -7.702246 0.000002 0.000001 -0.000001 7.886023 -0.446186 10.754022 -4.696723 -2.775975 -2.953097 -7.624515 -0.073956 -3.758969 -0.000001 -0.000000 0.000001 
2.539751 105.878113 -0.973329 -1.629127 -4.063854 7.492552 -2.105724 0.346383 -1.974454 2.904628 7.021022 -7.759811 1.764172 -0.264759 1.163604 -5.681380 8.515823 -4.442235 0.000001 0.000000 -0.000001 17.386559 15.094330 -54.495330 69.008762 19.731295 -87.492107 -9.755962 35.606777 -4.021724 -0.000002 -0.000004 -0.000004 3.813780 -3.498838 22.338801 3.434478 8.541693 41.185064 7.177423 14.853776 -0.037770 -0.000001 -0.000002 -0.000001 -1.060126 -0.798581 -14.390100 8.551838 3.543379 8.651725 -5.923894 -24.088677 -7.601962 0.000000 0.000005 -0.000000 7.284885 -0.407777 10.975021 -4.380601 -2.945149 -2.944586 -7.420364 0.266625 -3.565499 -0.000000 -0.000001 -0.000000 
2.454780 105.783058 -0.944819 -1.619903 -4.782781 7.092095 -1.533652 0.231472 -1.763479 0.184165 6.938816 -7.330604 3.717298 -0.274042 1.110490 -4.830280 8.722228 -4.590578 0.000001 0.000000 -0.000001 17.159225 14.723745 -53.764739 68.925092 18.225264 -86.894787 -9.759820 36.352005 -5.373931 -0.000004 -0.000006 -0.000002 3.760928 -3.084201 21.942411 3.257583 8.119483 41.494509 6.639658 14.185557 -0.300296 -0.000002 0.000003 0.000002 -2.141550 -0.786733 -13.958098 11.024851 3.687898 8.406016 -5.675659 -23.545341 -7.286686 0.000000 0.000003 -0.000000 7.114061 -0.348997 11.257114 -3.776367 -3.064760 -2.800494 -7.997647 0.435073 -3.600317 -0.000001 -0.000000 0.000000 
2.379989 105.658295 -0.914843 -1.357814 -5.437865 6.727922 -1.280779 0.200053 -1.650373 -0.815311 6.570551 -6.861690 4.299601 -0.212472 0.901492 -4.411772 8.578214 -4.657643 0.000002 0.000004 -0.000001 16.856137 13.413846 -52.676987 68.665026 15.978546 -85.585166 -10.399208 36.368981 -6.183008 -0.000004 -0.000006 0.000001 3.618948 -2.697843 21.534989 2.988735 7.237572 41.891671 6.746649 13.301008 -1.408754 0.000001 0.000001 0.000004 -4.176248 -0.527909 -13.413271 14.921878 3.998943 7.815534 -5.590874 -23.244059 -7.120800 -0.000000 0.000003 -0.000000 6.472204 -0.402646 11.538454 -2.293369 -3.454044 -2.778643 -8.546572 1.290210 -3.364906 -0.000000 -0.000001 0.000000 
